<svg width="180" height="44" viewBox="0 0 180 44" fill="none" xmlns="http://www.w3.org/2000/svg">
<path d="M138.418 21.384V24H125.818V7.20001H138.082V9.81601H128.938V14.184H137.05V16.752H128.938V21.384H138.418Z" fill="#2D9CDB"/>
<path d="M122.649 17.664C122.649 17.872 122.633 18.168 122.601 18.552H112.545C112.721 19.496 113.177 20.248 113.913 20.808C114.665 21.352 115.593 21.624 116.697 21.624C118.105 21.624 119.265 21.16 120.177 20.232L121.785 22.08C121.209 22.768 120.481 23.288 119.601 23.64C118.721 23.992 117.729 24.168 116.625 24.168C115.217 24.168 113.977 23.888 112.905 23.328C111.833 22.768 111.001 21.992 110.409 21C109.833 19.992 109.545 18.856 109.545 17.592C109.545 16.344 109.825 15.224 110.385 14.232C110.961 13.224 111.753 12.44 112.761 11.88C113.769 11.32 114.905 11.04 116.169 11.04C117.417 11.04 118.529 11.32 119.505 11.88C120.497 12.424 121.265 13.2 121.809 14.208C122.369 15.2 122.649 16.352 122.649 17.664ZM116.169 13.44C115.209 13.44 114.393 13.728 113.721 14.304C113.065 14.864 112.665 15.616 112.521 16.56H119.793C119.665 15.632 119.273 14.88 118.617 14.304C117.961 13.728 117.145 13.44 116.169 13.44Z" fill="#F2994A"/>
<path d="M91.0607 7.20001H98.4047C100.197 7.20001 101.789 7.55201 103.181 8.25601C104.573 8.94401 105.653 9.92801 106.421 11.208C107.189 12.472 107.573 13.936 107.573 15.6C107.573 17.264 107.189 18.736 106.421 20.016C105.653 21.28 104.573 22.264 103.181 22.968C101.789 23.656 100.197 24 98.4047 24H91.0607V7.20001ZM98.2607 21.36C99.4927 21.36 100.573 21.128 101.501 20.664C102.445 20.184 103.165 19.512 103.661 18.648C104.173 17.768 104.429 16.752 104.429 15.6C104.429 14.448 104.173 13.44 103.661 12.576C103.165 11.696 102.445 11.024 101.501 10.56C100.573 10.08 99.4927 9.84001 98.2607 9.84001H94.1807V21.36H98.2607Z" fill="#F2994A"/>
<path d="M82.6758 18.072V24H79.5558V18.12L72.9558 7.20001H76.2918L81.2118 15.384L86.1798 7.20001H89.2518L82.6758 18.072Z" fill="#27AE60"/>
<path d="M66.3452 24.168C65.0492 24.168 63.8812 23.888 62.8412 23.328C61.8012 22.768 60.9852 21.992 60.3932 21C59.8172 19.992 59.5292 18.856 59.5292 17.592C59.5292 16.328 59.8172 15.2 60.3932 14.208C60.9852 13.216 61.8012 12.44 62.8412 11.88C63.8812 11.32 65.0492 11.04 66.3452 11.04C67.6572 11.04 68.8332 11.32 69.8732 11.88C70.9132 12.44 71.7212 13.216 72.2972 14.208C72.8892 15.2 73.1852 16.328 73.1852 17.592C73.1852 18.856 72.8892 19.992 72.2972 21C71.7212 21.992 70.9132 22.768 69.8732 23.328C68.8332 23.888 67.6572 24.168 66.3452 24.168ZM66.3452 21.6C67.4492 21.6 68.3612 21.232 69.0812 20.496C69.8012 19.76 70.1612 18.792 70.1612 17.592C70.1612 16.392 69.8012 15.424 69.0812 14.688C68.3612 13.952 67.4492 13.584 66.3452 13.584C65.2412 13.584 64.3292 13.952 63.6092 14.688C62.9052 15.424 62.5532 16.392 62.5532 17.592C62.5532 18.792 62.9052 19.76 63.6092 20.496C64.3292 21.232 65.2412 21.6 66.3452 21.6Z" fill="#EB5757"/>
<path d="M54.5194 15.264C55.4474 15.568 56.1834 16.08 56.7274 16.8C57.2714 17.504 57.5434 18.384 57.5434 19.44C57.5434 20.896 56.9834 22.024 55.8634 22.824C54.7434 23.608 53.1114 24 50.9674 24H42.6154V7.20001H50.4874C52.4714 7.20001 53.9994 7.59201 55.0714 8.37601C56.1434 9.14401 56.6794 10.208 56.6794 11.568C56.6794 12.4 56.4874 13.136 56.1034 13.776C55.7194 14.416 55.1914 14.912 54.5194 15.264ZM45.7354 9.64801V14.28H50.1514C51.2394 14.28 52.0714 14.088 52.6474 13.704C53.2394 13.304 53.5354 12.728 53.5354 11.976C53.5354 11.208 53.2394 10.632 52.6474 10.248C52.0714 9.84801 51.2394 9.64801 50.1514 9.64801H45.7354ZM50.7754 21.552C53.1914 21.552 54.3994 20.744 54.3994 19.128C54.3994 17.512 53.1914 16.704 50.7754 16.704H45.7354V21.552H50.7754Z" fill="#EB5757"/>
<path d="M38.0061 36.39C38.4661 36.49 38.8194 36.69 39.0661 36.99C39.3194 37.2834 39.4461 37.6634 39.4461 38.13C39.4461 38.73 39.2227 39.1934 38.7761 39.52C38.3361 39.84 37.6827 40 36.8161 40H33.5961V33H36.6161C37.3961 33 37.9994 33.1567 38.4261 33.47C38.8594 33.7834 39.0761 34.2267 39.0761 34.8C39.0761 35.1867 38.9794 35.5167 38.7861 35.79C38.5994 36.0567 38.3394 36.2567 38.0061 36.39ZM34.3361 33.61V36.15H36.5661C37.1327 36.15 37.5694 36.0434 37.8761 35.83C38.1827 35.61 38.3361 35.2934 38.3361 34.88C38.3361 34.4667 38.1827 34.1534 37.8761 33.94C37.5694 33.72 37.1327 33.61 36.5661 33.61H34.3361ZM36.8061 39.39C37.4327 39.39 37.9061 39.2834 38.2261 39.07C38.5461 38.8567 38.7061 38.5234 38.7061 38.07C38.7061 37.1967 38.0727 36.76 36.8061 36.76H34.3361V39.39H36.8061Z" fill="#12191D"/>
<path d="M43.3351 40.05C42.8285 40.05 42.3718 39.9367 41.9651 39.71C41.5585 39.4767 41.2385 39.1567 41.0051 38.75C40.7718 38.3434 40.6551 37.8834 40.6551 37.37C40.6551 36.8567 40.7718 36.3967 41.0051 35.99C41.2385 35.5834 41.5585 35.2667 41.9651 35.04C42.3718 34.8134 42.8285 34.7 43.3351 34.7C43.8418 34.7 44.2985 34.8134 44.7051 35.04C45.1118 35.2667 45.4285 35.5834 45.6551 35.99C45.8885 36.3967 46.0051 36.8567 46.0051 37.37C46.0051 37.8834 45.8885 38.3434 45.6551 38.75C45.4285 39.1567 45.1118 39.4767 44.7051 39.71C44.2985 39.9367 43.8418 40.05 43.3351 40.05ZM43.3351 39.42C43.7085 39.42 44.0418 39.3367 44.3351 39.17C44.6351 38.9967 44.8685 38.7534 45.0351 38.44C45.2018 38.1267 45.2851 37.77 45.2851 37.37C45.2851 36.97 45.2018 36.6134 45.0351 36.3C44.8685 35.9867 44.6351 35.7467 44.3351 35.58C44.0418 35.4067 43.7085 35.32 43.3351 35.32C42.9618 35.32 42.6251 35.4067 42.3251 35.58C42.0318 35.7467 41.7985 35.9867 41.6251 36.3C41.4585 36.6134 41.3751 36.97 41.3751 37.37C41.3751 37.77 41.4585 38.1267 41.6251 38.44C41.7985 38.7534 42.0318 38.9967 42.3251 39.17C42.6251 39.3367 42.9618 39.42 43.3351 39.42Z" fill="#12191D"/>
<path d="M49.8047 40.05C49.298 40.05 48.8413 39.9367 48.4347 39.71C48.028 39.4767 47.708 39.1567 47.4747 38.75C47.2413 38.3434 47.1247 37.8834 47.1247 37.37C47.1247 36.8567 47.2413 36.3967 47.4747 35.99C47.708 35.5834 48.028 35.2667 48.4347 35.04C48.8413 34.8134 49.298 34.7 49.8047 34.7C50.3113 34.7 50.768 34.8134 51.1747 35.04C51.5813 35.2667 51.898 35.5834 52.1247 35.99C52.358 36.3967 52.4747 36.8567 52.4747 37.37C52.4747 37.8834 52.358 38.3434 52.1247 38.75C51.898 39.1567 51.5813 39.4767 51.1747 39.71C50.768 39.9367 50.3113 40.05 49.8047 40.05ZM49.8047 39.42C50.178 39.42 50.5113 39.3367 50.8047 39.17C51.1047 38.9967 51.338 38.7534 51.5047 38.44C51.6713 38.1267 51.7547 37.77 51.7547 37.37C51.7547 36.97 51.6713 36.6134 51.5047 36.3C51.338 35.9867 51.1047 35.7467 50.8047 35.58C50.5113 35.4067 50.178 35.32 49.8047 35.32C49.4313 35.32 49.0947 35.4067 48.7947 35.58C48.5013 35.7467 48.268 35.9867 48.0947 36.3C47.928 36.6134 47.8447 36.97 47.8447 37.37C47.8447 37.77 47.928 38.1267 48.0947 38.44C48.268 38.7534 48.5013 38.9967 48.7947 39.17C49.0947 39.3367 49.4313 39.42 49.8047 39.42Z" fill="#12191D"/>
<path d="M56.0742 37.36L54.8342 38.5V40H54.1242V32.58H54.8342V37.61L57.9742 34.74H58.8542L56.6042 36.89L59.0642 40H58.1942L56.0742 37.36Z" fill="#12191D"/>
<path d="M65.6972 37.58V40H64.9672V37.58L62.1672 33H62.9572L65.3572 36.93L67.7572 33H68.4972L65.6972 37.58Z" fill="#12191D"/>
<path d="M71.2492 40.05C70.7425 40.05 70.2859 39.9367 69.8792 39.71C69.4725 39.4767 69.1525 39.1567 68.9192 38.75C68.6859 38.3434 68.5692 37.8834 68.5692 37.37C68.5692 36.8567 68.6859 36.3967 68.9192 35.99C69.1525 35.5834 69.4725 35.2667 69.8792 35.04C70.2859 34.8134 70.7425 34.7 71.2492 34.7C71.7559 34.7 72.2125 34.8134 72.6192 35.04C73.0259 35.2667 73.3425 35.5834 73.5692 35.99C73.8025 36.3967 73.9192 36.8567 73.9192 37.37C73.9192 37.8834 73.8025 38.3434 73.5692 38.75C73.3425 39.1567 73.0259 39.4767 72.6192 39.71C72.2125 39.9367 71.7559 40.05 71.2492 40.05ZM71.2492 39.42C71.6225 39.42 71.9559 39.3367 72.2492 39.17C72.5492 38.9967 72.7825 38.7534 72.9492 38.44C73.1159 38.1267 73.1992 37.77 73.1992 37.37C73.1992 36.97 73.1159 36.6134 72.9492 36.3C72.7825 35.9867 72.5492 35.7467 72.2492 35.58C71.9559 35.4067 71.6225 35.32 71.2492 35.32C70.8759 35.32 70.5392 35.4067 70.2392 35.58C69.9459 35.7467 69.7125 35.9867 69.5392 36.3C69.3725 36.6134 69.2892 36.97 69.2892 37.37C69.2892 37.77 69.3725 38.1267 69.5392 38.44C69.7125 38.7534 69.9459 38.9967 70.2392 39.17C70.5392 39.3367 70.8759 39.42 71.2492 39.42Z" fill="#12191D"/>
<path d="M80.3087 34.74V40H79.6287V39.04C79.4421 39.36 79.1854 39.61 78.8587 39.79C78.5321 39.9634 78.1587 40.05 77.7387 40.05C77.0521 40.05 76.5087 39.86 76.1087 39.48C75.7154 39.0934 75.5187 38.53 75.5187 37.79V34.74H76.2287V37.72C76.2287 38.2734 76.3654 38.6934 76.6387 38.98C76.9121 39.2667 77.3021 39.41 77.8087 39.41C78.3621 39.41 78.7987 39.2434 79.1187 38.91C79.4387 38.57 79.5987 38.1 79.5987 37.5V34.74H80.3087Z" fill="#12191D"/>
<path d="M83.1772 35.77C83.3439 35.4167 83.5906 35.15 83.9172 34.97C84.2506 34.79 84.6606 34.7 85.1472 34.7V35.39L84.9772 35.38C84.4239 35.38 83.9906 35.55 83.6772 35.89C83.3639 36.23 83.2072 36.7067 83.2072 37.32V40H82.4972V34.74H83.1772V35.77Z" fill="#12191D"/>
<path d="M89.6781 33H92.5281C93.2681 33 93.9214 33.15 94.4881 33.45C95.0548 33.7434 95.4948 34.1567 95.8081 34.69C96.1214 35.2167 96.2781 35.82 96.2781 36.5C96.2781 37.18 96.1214 37.7867 95.8081 38.32C95.4948 38.8467 95.0548 39.26 94.4881 39.56C93.9214 39.8534 93.2681 40 92.5281 40H89.6781V33ZM92.4881 39.36C93.1014 39.36 93.6381 39.24 94.0981 39C94.5581 38.7534 94.9148 38.4167 95.1681 37.99C95.4214 37.5567 95.5481 37.06 95.5481 36.5C95.5481 35.94 95.4214 35.4467 95.1681 35.02C94.9148 34.5867 94.5581 34.25 94.0981 34.01C93.6381 33.7634 93.1014 33.64 92.4881 33.64H90.4181V39.36H92.4881Z" fill="#12191D"/>
<path d="M102.57 37.59H98.1698C98.2098 38.1367 98.4198 38.58 98.7998 38.92C99.1798 39.2534 99.6598 39.42 100.24 39.42C100.566 39.42 100.866 39.3634 101.14 39.25C101.413 39.13 101.65 38.9567 101.85 38.73L102.25 39.19C102.016 39.47 101.723 39.6834 101.37 39.83C101.023 39.9767 100.64 40.05 100.22 40.05C99.6798 40.05 99.1998 39.9367 98.7798 39.71C98.3665 39.4767 98.0431 39.1567 97.8098 38.75C97.5765 38.3434 97.4598 37.8834 97.4598 37.37C97.4598 36.8567 97.5698 36.3967 97.7898 35.99C98.0165 35.5834 98.3232 35.2667 98.7098 35.04C99.1031 34.8134 99.5432 34.7 100.03 34.7C100.516 34.7 100.953 34.8134 101.34 35.04C101.726 35.2667 102.03 35.5834 102.25 35.99C102.47 36.39 102.58 36.85 102.58 37.37L102.57 37.59ZM100.03 35.31C99.5231 35.31 99.0965 35.4734 98.7498 35.8C98.4098 36.12 98.2165 36.54 98.1698 37.06H101.9C101.853 36.54 101.656 36.12 101.31 35.8C100.97 35.4734 100.543 35.31 100.03 35.31Z" fill="#12191D"/>
<path d="M105.635 40.05C105.208 40.05 104.798 39.99 104.405 39.87C104.018 39.7434 103.715 39.5867 103.495 39.4L103.815 38.84C104.035 39.0134 104.312 39.1567 104.645 39.27C104.978 39.3767 105.325 39.43 105.685 39.43C106.165 39.43 106.518 39.3567 106.745 39.21C106.978 39.0567 107.095 38.8434 107.095 38.57C107.095 38.3767 107.032 38.2267 106.905 38.12C106.778 38.0067 106.618 37.9234 106.425 37.87C106.232 37.81 105.975 37.7534 105.655 37.7C105.228 37.62 104.885 37.54 104.625 37.46C104.365 37.3734 104.142 37.23 103.955 37.03C103.775 36.83 103.685 36.5534 103.685 36.2C103.685 35.76 103.868 35.4 104.235 35.12C104.602 34.84 105.112 34.7 105.765 34.7C106.105 34.7 106.445 34.7467 106.785 34.84C107.125 34.9267 107.405 35.0434 107.625 35.19L107.315 35.76C106.882 35.46 106.365 35.31 105.765 35.31C105.312 35.31 104.968 35.39 104.735 35.55C104.508 35.71 104.395 35.92 104.395 36.18C104.395 36.38 104.458 36.54 104.585 36.66C104.718 36.78 104.882 36.87 105.075 36.93C105.268 36.9834 105.535 37.04 105.875 37.1C106.295 37.18 106.632 37.26 106.885 37.34C107.138 37.42 107.355 37.5567 107.535 37.75C107.715 37.9434 107.805 38.21 107.805 38.55C107.805 39.01 107.612 39.3767 107.225 39.65C106.845 39.9167 106.315 40.05 105.635 40.05Z" fill="#12191D"/>
<path d="M111.268 37.36L110.028 38.5V40H109.318V32.58H110.028V37.61L113.168 34.74H114.048L111.798 36.89L114.258 40H113.388L111.268 37.36Z" fill="#12191D"/>
<path d="M123.441 39.36V40H118.491V33H123.291V33.64H119.231V36.13H122.851V36.76H119.231V39.36H123.441Z" fill="#12191D"/>
<path d="M126.992 34.7C127.679 34.7 128.205 34.8734 128.572 35.22C128.939 35.56 129.122 36.0667 129.122 36.74V40H128.442V39.18C128.282 39.4534 128.045 39.6667 127.732 39.82C127.425 39.9734 127.059 40.05 126.632 40.05C126.045 40.05 125.579 39.91 125.232 39.63C124.885 39.35 124.712 38.98 124.712 38.52C124.712 38.0734 124.872 37.7134 125.192 37.44C125.519 37.1667 126.035 37.03 126.742 37.03H128.412V36.71C128.412 36.2567 128.285 35.9134 128.032 35.68C127.779 35.44 127.409 35.32 126.922 35.32C126.589 35.32 126.269 35.3767 125.962 35.49C125.655 35.5967 125.392 35.7467 125.172 35.94L124.852 35.41C125.119 35.1834 125.439 35.01 125.812 34.89C126.185 34.7634 126.579 34.7 126.992 34.7ZM126.742 39.49C127.142 39.49 127.485 39.4 127.772 39.22C128.059 39.0334 128.272 38.7667 128.412 38.42V37.56H126.762C125.862 37.56 125.412 37.8734 125.412 38.5C125.412 38.8067 125.529 39.05 125.762 39.23C125.995 39.4034 126.322 39.49 126.742 39.49Z" fill="#12191D"/>
<path d="M132.66 40.05C132.234 40.05 131.824 39.99 131.43 39.87C131.044 39.7434 130.74 39.5867 130.52 39.4L130.84 38.84C131.06 39.0134 131.337 39.1567 131.67 39.27C132.004 39.3767 132.35 39.43 132.71 39.43C133.19 39.43 133.544 39.3567 133.77 39.21C134.004 39.0567 134.12 38.8434 134.12 38.57C134.12 38.3767 134.057 38.2267 133.93 38.12C133.804 38.0067 133.644 37.9234 133.45 37.87C133.257 37.81 133 37.7534 132.68 37.7C132.254 37.62 131.91 37.54 131.65 37.46C131.39 37.3734 131.167 37.23 130.98 37.03C130.8 36.83 130.71 36.5534 130.71 36.2C130.71 35.76 130.894 35.4 131.26 35.12C131.627 34.84 132.137 34.7 132.79 34.7C133.13 34.7 133.47 34.7467 133.81 34.84C134.15 34.9267 134.43 35.0434 134.65 35.19L134.34 35.76C133.907 35.46 133.39 35.31 132.79 35.31C132.337 35.31 131.994 35.39 131.76 35.55C131.534 35.71 131.42 35.92 131.42 36.18C131.42 36.38 131.484 36.54 131.61 36.66C131.744 36.78 131.907 36.87 132.1 36.93C132.294 36.9834 132.56 37.04 132.9 37.1C133.32 37.18 133.657 37.26 133.91 37.34C134.164 37.42 134.38 37.5567 134.56 37.75C134.74 37.9434 134.83 38.21 134.83 38.55C134.83 39.01 134.637 39.3767 134.25 39.65C133.87 39.9167 133.34 40.05 132.66 40.05Z" fill="#12191D"/>
<path d="M136.343 34.74H137.053V40H136.343V34.74ZM136.703 33.59C136.556 33.59 136.433 33.54 136.333 33.44C136.233 33.34 136.183 33.22 136.183 33.08C136.183 32.9467 136.233 32.83 136.333 32.73C136.433 32.63 136.556 32.58 136.703 32.58C136.85 32.58 136.973 32.63 137.073 32.73C137.173 32.8234 137.223 32.9367 137.223 33.07C137.223 33.2167 137.173 33.34 137.073 33.44C136.973 33.54 136.85 33.59 136.703 33.59Z" fill="#12191D"/>
<path d="M139.228 32.58H139.938V40H139.228V32.58Z" fill="#12191D"/>
<path d="M146.534 34.74L143.904 40.63C143.691 41.1234 143.444 41.4734 143.164 41.68C142.884 41.8867 142.547 41.99 142.154 41.99C141.901 41.99 141.664 41.95 141.444 41.87C141.224 41.79 141.034 41.67 140.874 41.51L141.204 40.98C141.471 41.2467 141.791 41.38 142.164 41.38C142.404 41.38 142.607 41.3134 142.774 41.18C142.947 41.0467 143.107 40.82 143.254 40.5L143.484 39.99L141.134 34.74H141.874L143.854 39.21L145.834 34.74H146.534Z" fill="#12191D"/>
</svg>
